<?xml version="1.0" standalone="no"?><!DOCTYPE svg PUBLIC "-//W3C//DTD SVG 1.1//EN" "http://www.w3.org/Graphics/SVG/1.1/DTD/svg11.dtd"><svg class="icon" width="200px" height="200.00px" viewBox="0 0 1024 1024" version="1.1" xmlns="http://www.w3.org/2000/svg"><path d="M873.244444 150.755556C776.533333 54.044444 648.533333 0 512 0S247.466667 54.044444 150.755556 150.755556C54.044444 247.466667 0 375.466667 0 512c0 136.533333 54.044444 264.533333 150.755556 361.244444C247.466667 969.955556 375.466667 1024 512 1024s264.533333-54.044444 361.244444-150.755556C969.955556 776.533333 1024 648.533333 1024 512c0-136.533333-54.044444-264.533333-150.755556-361.244444z" fill="#040000" /><path d="M702.577778 662.755556L554.666667 512l150.755555-150.755556c11.377778-11.377778 11.377778-31.288889 0-42.666666-11.377778-11.377778-31.288889-11.377778-42.666666 0L512 469.333333l-150.755556-150.755555c-11.377778-11.377778-31.288889-11.377778-42.666666 0-11.377778 11.377778-11.377778 31.288889 0 42.666666l150.755555 150.755556-150.755555 150.755556c-11.377778 11.377778-11.377778 31.288889 0 42.666666 5.688889 5.688889 14.222222 8.533333 19.911111 8.533334s14.222222-2.844444 19.911111-8.533334l150.755556-150.755555 150.755555 150.755555c5.688889 5.688889 14.222222 8.533333 19.911111 8.533334 8.533333 0 14.222222-2.844444 19.911111-8.533334 14.222222-14.222222 14.222222-31.288889 2.844445-42.666666z" fill="#FFFFFF" /></svg>