<?xml version="1.0" standalone="no"?><!DOCTYPE svg PUBLIC "-//W3C//DTD SVG 1.1//EN" "http://www.w3.org/Graphics/SVG/1.1/DTD/svg11.dtd"><svg class="icon" width="200px" height="200.00px" viewBox="0 0 1024 1024" version="1.1" xmlns="http://www.w3.org/2000/svg"><path d="M512.05699 1023.998456a467.477556 467.477556 0 0 1-330.531676-798.023145 467.477556 467.477556 0 1 1 661.049438 661.049438A464.374952 464.374952 0 0 1 512.05699 1023.998456z m0-890.349962c-233.19617 0-422.955884 189.717975-422.955884 422.955884s189.717975 422.955884 422.955884 422.955884 422.955884-189.717975 422.955883-422.955884S745.25316 133.565016 512.05699 133.565016z" fill="#333333" /><path d="M512.05699 111.318093m-89.057257 0a89.057257 89.057257 0 1 0 178.114514 0 89.057257 89.057257 0 1 0-178.114514 0Z" fill="#FF505E" /><path d="M512.05699 222.60836a111.30418 111.30418 0 1 1 111.30418-111.30418 111.457223 111.457223 0 0 1-111.30418 111.30418z m0-178.086688a66.782508 66.782508 0 1 0 66.782508 66.782508 66.865986 66.865986 0 0 0-66.782508-66.782508z" fill="#333333" /><path d="M126.527136 779.087521m-89.057257 0a89.057257 89.057257 0 1 0 178.114514 0 89.057257 89.057257 0 1 0-178.114514 0Z" fill="#FF505E" /><path d="M126.708006 890.43344A111.30418 111.30418 0 0 1 70.805481 682.670275 111.30418 111.30418 0 1 1 126.708006 890.43344zM93.066317 721.22326A66.782508 66.782508 0 1 0 184.377484 745.738006 66.392943 66.392943 0 0 0 93.066317 721.22326z" fill="#333333" /><path d="M897.586843 779.087521m-89.057257 0a89.057257 89.057257 0 1 0 178.114514 0 89.057257 89.057257 0 1 0-178.114514 0Z" fill="#FF505E" /><path d="M897.392061 890.43344a111.30418 111.30418 0 1 1 96.598115-55.65209 110.594616 110.594616 0 0 1-96.598115 55.65209z m0.306086-178.086688a66.782508 66.782508 0 1 0 33.293863 8.93216 66.782508 66.782508 0 0 0-33.293863-8.93216z" fill="#333333" /></svg>